<?xml version="1.0" encoding="utf-8"?>
<!-- Generator: Adobe Illustrator 15.1.0, SVG Export Plug-In . SVG Version: 6.00 Build 0)  -->
<!DOCTYPE svg PUBLIC "-//W3C//DTD SVG 1.1//EN" "http://www.w3.org/Graphics/SVG/1.1/DTD/svg11.dtd">
<svg version="1.1" id="Слой_1" xmlns="http://www.w3.org/2000/svg" xmlns:xlink="http://www.w3.org/1999/xlink" x="0px" y="0px"
	 width="290px" height="55px" viewBox="0 0 490.866 93.569" enable-background="new 0 0 490.866 93.569"
	 xml:space="preserve">
<g>
	<g>
		<path fill="#F7A536" d="M18.032,92.838H9.991V9.381H0V1.34h28.266v8.041H18.032V92.838z"/>
		<path fill="#F7A536" d="M84.432,93.569c-8.367,0-16.104-2.071-23.209-6.213c-7.108-4.143-12.793-9.787-17.057-16.935
			c-4.264-7.146-6.396-14.986-6.396-23.514c0-8.365,2.071-16.162,6.214-23.393c4.142-7.228,9.827-12.954,17.057-17.179
			C68.268,2.113,76.065,0,84.432,0c8.446,0,16.265,2.092,23.453,6.274c7.188,4.184,12.894,9.91,17.118,17.179
			c4.222,7.27,6.335,15.088,6.335,23.453c0,8.448-2.092,16.204-6.274,23.271c-4.185,7.066-9.89,12.731-17.118,16.996
			C100.715,91.437,92.878,93.569,84.432,93.569z M84.675,85.528c6.741,0,13.097-1.708,19.067-5.125
			c5.97-3.417,10.701-8.155,14.194-14.217c3.491-6.061,5.239-12.467,5.239-19.219c0-6.834-1.727-13.219-5.178-19.159
			c-3.454-5.938-8.184-10.655-14.194-14.154c-6.012-3.499-12.387-5.249-19.128-5.249c-6.905,0-13.362,1.73-19.372,5.188
			c-6.012,3.457-10.763,8.197-14.254,14.217c-3.493,6.02-5.239,12.406-5.239,19.157c0,6.834,1.706,13.181,5.117,19.037
			c3.412,5.857,8.163,10.577,14.255,14.156C71.273,83.738,77.771,85.528,84.675,85.528z"/>
		<path fill="#F7A536" d="M171.542,32.408L185.31,1.31l17.666,91.528l-8.439,0.006l-12.301-65.031L171.497,47.83l-11.388-19.932
			l-10.506,64.938l-8.273,0.002L156.313,1.31L171.542,32.408z"/>
		<path fill="#F7A536" d="M215.645,1.34c3.492,0,6.741,0.225,9.747,0.672c3.004,0.448,6.132,1.361,9.381,2.744
			c6.579,2.684,12.183,6.813,16.813,12.383c4.63,5.572,6.944,12.058,6.944,19.459v0.487c0,8.216-1.645,14.946-4.934,20.192
			c-3.29,5.247-7.048,8.987-11.27,11.222c-4.225,2.237-8.041,3.843-11.453,4.818l-7.188,1.709v17.811h-8.042V1.34z M223.686,67.131
			c6.364-0.975,12.463-3.735,18.296-8.285c5.833-4.548,8.751-11.696,8.751-21.443c0-4.873-1.367-9.32-4.101-13.341
			c-2.734-4.021-6.14-7.268-10.219-9.747c-4.08-2.477-8.323-4.082-12.728-4.813V67.131z"/>
		<path fill="#F7A536" d="M279.485,29.484l17.055,34.845c2.193,4.386,3.292,8.488,3.292,12.305c0,5.037-2.053,8.997-6.153,11.879
			c-4.102,2.884-9.32,4.325-15.655,4.325h-11.209v-8.041h11.453c8.528,0,12.792-2.715,12.792-8.148c0-3.242-1.287-7.334-3.858-12.28
			l-16.657-34.862c-1.115-2.601-1.871-6.016-2.268-10.242c0-4.714,1.319-8.82,3.96-12.315c2.639-3.495,6.477-5.245,11.514-5.245
			h10.721v8.041l-7.919-0.244c-2.844,0-5.239,0.813-7.188,2.437c-0.975,0.813-1.767,1.788-2.375,2.924
			c-0.609,1.138-0.914,2.396-0.914,3.777c0,2.193,0.567,4.59,1.705,7.188c0.649,1.544,1.137,2.601,1.463,3.168
			C279.321,29.078,279.403,29.24,279.485,29.484z"/>
		<path fill="#F7A536" d="M358.313,93.569c-8.367,0-16.104-2.071-23.21-6.213c-7.108-4.143-12.792-9.787-17.057-16.935
			c-4.265-7.146-6.396-14.986-6.396-23.514c0-8.365,2.071-16.162,6.214-23.393c4.143-7.228,9.826-12.954,17.057-17.179
			C342.148,2.113,349.945,0,358.313,0c8.446,0,16.265,2.092,23.453,6.274c7.188,4.184,12.894,9.91,17.118,17.179
			c4.222,7.27,6.335,15.088,6.335,23.453c0,8.448-2.092,16.204-6.274,23.271c-4.185,7.066-9.89,12.731-17.118,16.996
			C374.597,91.437,366.759,93.569,358.313,93.569z M358.556,85.528c6.741,0,13.098-1.708,19.067-5.125
			c5.97-3.417,10.7-8.155,14.193-14.217c3.492-6.061,5.239-12.467,5.239-19.219c0-6.834-1.727-13.219-5.178-19.159
			c-3.453-5.938-8.184-10.655-14.194-14.154c-6.012-3.499-12.387-5.249-19.128-5.249c-6.904,0-13.361,1.73-19.371,5.188
			c-6.012,3.457-10.764,8.197-14.255,14.217c-3.493,6.02-5.239,12.406-5.239,19.157c0,6.834,1.706,13.181,5.117,19.037
			c3.411,5.857,8.163,10.577,14.255,14.156C345.154,83.738,351.651,85.528,358.556,85.528z"/>
		<path fill="#F7A536" d="M423.249,92.838h-8.041V0.944l24.977,13.189V1.462h8.041v91.376h-8.041V23.227l-16.936-8.943V92.838z"/>
		<path fill="#F7A536" d="M470.52,29.484l17.055,34.845c2.193,4.386,3.292,8.488,3.292,12.305c0,5.037-2.053,8.997-6.152,11.879
			c-4.103,2.884-9.321,4.325-15.656,4.325h-11.209v-8.041h11.453c8.528,0,12.792-2.715,12.792-8.148
			c0-3.242-1.287-7.334-3.858-12.28l-16.657-34.862c-1.115-2.601-1.871-6.016-2.268-10.242c0-4.714,1.319-8.82,3.96-12.315
			c2.639-3.495,6.477-5.245,11.514-5.245h10.721v8.041l-7.919-0.244c-2.844,0-5.239,0.813-7.188,2.437
			c-0.975,0.813-1.767,1.788-2.375,2.924c-0.609,1.138-0.914,2.396-0.914,3.777c0,2.193,0.567,4.59,1.705,7.188
			c0.649,1.544,1.137,2.601,1.463,3.168C470.355,29.078,470.438,29.24,470.52,29.484z"/>
	</g>
	<g>
		<path fill="#F7A536" d="M66.509,40.761v-2.015c0.883,0,1.674-0.316,2.372-0.948c0.699-0.632,1.048-1.519,1.048-2.661V19.844h-3.42
			v-2.015h5.374v17.245c0,1.407-0.331,2.528-0.992,3.364c-0.662,0.836-1.431,1.447-2.306,1.834
			C67.669,40.598,66.977,40.761,66.509,40.761z"/>
		<path fill="#F7A536" d="M78.143,40.761h-2.016v-15.39h-1.038l-0.641-2.015h1.679v-2.81c0-1.079,0.367-1.882,1.1-2.412
			c0.773-0.509,1.679-0.763,2.717-0.763c0.631,0,1.231,0.097,1.802,0.29c0.57,0.193,1.048,0.529,1.435,1.007
			c0.387,0.479,0.581,1.104,0.581,1.878v20.215h-2.046v-15.39h-3.573V40.761z M78.143,20.546v2.81h3.573v-2.81
			c0-0.346-0.173-0.61-0.52-0.794c-0.346-0.183-0.763-0.274-1.252-0.274C78.743,19.478,78.143,19.834,78.143,20.546z"/>
		<path fill="#F7A536" d="M88.525,38.746h5.129v2.015h-7.612l5.002-20.917h-5.024v-2.015h7.696L88.525,38.746z"/>
		<path fill="#F7A536" d="M97.991,38.746h5.129v2.015h-7.612l5.002-20.917h-5.024v-2.015h7.696L97.991,38.746z"/>
	</g>
	<g>
		<path fill="#F7A536" d="M61.235,49.253c0.204-0.02,0.399-0.046,0.583-0.076c0.184-0.031,0.389-0.046,0.614-0.046
			c1.064,0,1.996,0.305,2.794,0.916c1.105,0.794,1.658,1.802,1.658,3.023c0,1.161-0.611,2.097-1.832,2.81
			c1.282,0.183,2.443,0.636,3.481,1.359s1.863,1.624,2.474,2.702c0.61,1.079,0.916,2.27,0.916,3.573c0,3.034-0.851,5.232-2.55,6.596
			c-1.7,1.364-3.741,2.046-6.123,2.046h-2.015V49.253z M63.25,54.567c0.509,0,0.916-0.153,1.222-0.458
			c0.305-0.306,0.458-0.672,0.458-1.1c0-0.346-0.122-0.672-0.367-0.977c-0.265-0.264-0.58-0.397-0.946-0.397H63.25V54.567z
			 M69.815,63.453c0-1.018-0.209-1.883-0.626-2.596c-0.417-0.712-1.023-1.302-1.817-1.771c-1.466-0.875-2.84-1.313-4.123-1.313
			v12.581c1.934,0,3.563-0.59,4.886-1.771c0.611-0.55,1.043-1.252,1.298-2.107C69.688,65.621,69.815,64.613,69.815,63.453z"/>
		<path fill="#F7A536" d="M77.449,72.155h-2.016v-15.39h-1.038l-0.641-2.015h1.679v-2.81c0-1.079,0.367-1.882,1.1-2.412
			c0.773-0.509,1.679-0.763,2.717-0.763c0.631,0,1.231,0.097,1.802,0.29c0.57,0.193,1.048,0.529,1.435,1.007
			c0.387,0.479,0.581,1.104,0.581,1.878v20.215h-2.046v-15.39h-3.573V72.155z M77.449,51.94v2.81h3.573v-2.81
			c0-0.346-0.173-0.61-0.52-0.794c-0.346-0.183-0.763-0.274-1.252-0.274C78.049,50.872,77.449,51.229,77.449,51.94z"/>
		<path fill="#F7A536" d="M87.373,72.155h-2.015V49.124l6.26,3.306v-3.176h2.015v22.902h-2.015V54.708l-4.245-2.242V72.155z"/>
		<path fill="#F7A536" d="M96.044,49.223h3.145c1.445,0,2.86,0.265,4.245,0.795c1.384,0.53,2.595,1.493,3.634,2.889
			c1.038,1.396,1.74,3.349,2.107,5.856c0.041,0.306,0.071,0.672,0.091,1.101c0.02,0.428,0.031,0.815,0.031,1.162
			c0,1.855-0.336,3.537-1.008,5.045c-0.916,1.998-2.214,3.511-3.893,4.541c-1.68,1.03-3.416,1.544-5.207,1.544h-3.145V49.223z
			 M98.06,70.14c1.812,0,3.395-0.413,4.749-1.239c1.354-0.826,2.412-1.967,3.176-3.425c0.763-1.458,1.145-3.054,1.145-4.787
			l-0.122-1.958c-0.408-2.589-1.354-4.485-2.84-5.688c-1.486-1.203-3.542-1.805-6.168-1.805L98.06,70.14z"/>
	</g>
</g>
</svg>
